<?xml version="1.0" encoding="utf-8" standalone="no"?>
<!DOCTYPE svg PUBLIC "-//W3C//DTD SVG 1.1//EN"
  "http://www.w3.org/Graphics/SVG/1.1/DTD/svg11.dtd">
<svg xmlns:xlink="http://www.w3.org/1999/xlink" width="864pt" height="288pt" viewBox="0 0 864 288" xmlns="http://www.w3.org/2000/svg" version="1.1">
 <metadata>
  <rdf:RDF xmlns:dc="http://purl.org/dc/elements/1.1/" xmlns:cc="http://creativecommons.org/ns#" xmlns:rdf="http://www.w3.org/1999/02/22-rdf-syntax-ns#">
   <cc:Work>
    <dc:type rdf:resource="http://purl.org/dc/dcmitype/StillImage"/>
    <dc:date>2024-08-29T15:17:43.868736</dc:date>
    <dc:format>image/svg+xml</dc:format>
    <dc:creator>
     <cc:Agent>
      <dc:title>Matplotlib v3.8.2, https://matplotlib.org/</dc:title>
     </cc:Agent>
    </dc:creator>
   </cc:Work>
  </rdf:RDF>
 </metadata>
 <defs>
  <style type="text/css">*{stroke-linejoin: round; stroke-linecap: butt}</style>
 </defs>
 <g id="figure_1">
  <g id="patch_1">
   <path d="M 0 288 
L 864 288 
L 864 0 
L 0 0 
z
" style="fill: #ffffff"/>
  </g>
  <g id="axes_1">
   <g id="patch_2">
    <path d="M 108 256.32 
L 304.941176 256.32 
L 304.941176 34.56 
L 108 34.56 
z
"/>
   </g>
   <g id="patch_3">
    <path d="M 116.951872 44.64 
L 175.425377 44.64 
L 175.425377 110.482424 
L 116.951872 110.482424 
z
" clip-path="url(#pffaecad0fb)" style="fill: #1199ff; stroke: #1199ff; stroke-linejoin: miter"/>
   </g>
   <g id="patch_4">
    <path d="M 177.233836 44.64 
L 235.707341 44.64 
L 235.707341 110.482424 
L 177.233836 110.482424 
z
" clip-path="url(#pffaecad0fb)" style="fill: #1199ff; stroke: #1199ff; stroke-linejoin: miter"/>
   </g>
   <g id="patch_5">
    <path d="M 237.5158 44.64 
L 295.989305 44.64 
L 295.989305 110.482424 
L 237.5158 110.482424 
z
" clip-path="url(#pffaecad0fb)" style="fill: #1199ff; stroke: #1199ff; stroke-linejoin: miter"/>
   </g>
   <g id="patch_6">
    <path d="M 116.951872 112.518788 
L 175.425377 112.518788 
L 175.425377 178.361212 
L 116.951872 178.361212 
z
" clip-path="url(#pffaecad0fb)" style="fill: #1199ff; stroke: #1199ff; stroke-linejoin: miter"/>
   </g>
   <g id="patch_7">
    <path d="M 177.233836 112.518788 
L 235.707341 112.518788 
L 235.707341 178.361212 
L 177.233836 178.361212 
z
" clip-path="url(#pffaecad0fb)" style="fill: #1199ff; stroke: #1199ff; stroke-linejoin: miter"/>
   </g>
   <g id="patch_8">
    <path d="M 237.5158 112.518788 
L 295.989305 112.518788 
L 295.989305 178.361212 
L 237.5158 178.361212 
z
" clip-path="url(#pffaecad0fb)" style="fill: #1199ff; stroke: #1199ff; stroke-linejoin: miter"/>
   </g>
   <g id="patch_9">
    <path d="M 116.951872 180.397576 
L 175.425377 180.397576 
L 175.425377 246.24 
L 116.951872 246.24 
z
" clip-path="url(#pffaecad0fb)" style="fill: #1199ff; stroke: #1199ff; stroke-linejoin: miter"/>
   </g>
   <g id="patch_10">
    <path d="M 177.233836 180.397576 
L 235.707341 180.397576 
L 235.707341 246.24 
L 177.233836 246.24 
z
" clip-path="url(#pffaecad0fb)" style="fill: #1199ff; stroke: #1199ff; stroke-linejoin: miter"/>
   </g>
   <g id="patch_11">
    <path d="M 237.5158 180.397576 
L 295.989305 180.397576 
L 295.989305 246.24 
L 237.5158 246.24 
z
" clip-path="url(#pffaecad0fb)" style="fill: #1199ff; stroke: #1199ff; stroke-linejoin: miter"/>
   </g>
   <g id="matplotlib.axis_1"/>
   <g id="matplotlib.axis_2"/>
   <g id="patch_12">
    <path d="M 108 256.32 
L 108 34.56 
" style="fill: none; stroke: #000000; stroke-width: 0.8; stroke-linejoin: miter; stroke-linecap: square"/>
   </g>
   <g id="patch_13">
    <path d="M 304.941176 256.32 
L 304.941176 34.56 
" style="fill: none; stroke: #000000; stroke-width: 0.8; stroke-linejoin: miter; stroke-linecap: square"/>
   </g>
   <g id="patch_14">
    <path d="M 108 256.32 
L 304.941176 256.32 
" style="fill: none; stroke: #000000; stroke-width: 0.8; stroke-linejoin: miter; stroke-linecap: square"/>
   </g>
   <g id="patch_15">
    <path d="M 108 34.56 
L 304.941176 34.56 
" style="fill: none; stroke: #000000; stroke-width: 0.8; stroke-linejoin: miter; stroke-linecap: square"/>
   </g>
   <g id="text_1">
    <!-- 11 -->
    <g transform="translate(138.553624 80.872462) scale(0.12 -0.12)">
     <defs>
      <path id="DejaVuSans-31" d="M 794 531 
L 1825 531 
L 1825 4091 
L 703 3866 
L 703 4441 
L 1819 4666 
L 2450 4666 
L 2450 531 
L 3481 531 
L 3481 0 
L 794 0 
L 794 531 
z
" transform="scale(0.015625)"/>
     </defs>
     <use xlink:href="#DejaVuSans-31"/>
     <use xlink:href="#DejaVuSans-31" x="63.623047"/>
    </g>
   </g>
   <g id="text_2">
    <!-- 21 -->
    <g transform="translate(138.553624 148.75125) scale(0.12 -0.12)">
     <defs>
      <path id="DejaVuSans-32" d="M 1228 531 
L 3431 531 
L 3431 0 
L 469 0 
L 469 531 
Q 828 903 1448 1529 
Q 2069 2156 2228 2338 
Q 2531 2678 2651 2914 
Q 2772 3150 2772 3378 
Q 2772 3750 2511 3984 
Q 2250 4219 1831 4219 
Q 1534 4219 1204 4116 
Q 875 4013 500 3803 
L 500 4441 
Q 881 4594 1212 4672 
Q 1544 4750 1819 4750 
Q 2544 4750 2975 4387 
Q 3406 4025 3406 3419 
Q 3406 3131 3298 2873 
Q 3191 2616 2906 2266 
Q 2828 2175 2409 1742 
Q 1991 1309 1228 531 
z
" transform="scale(0.015625)"/>
     </defs>
     <use xlink:href="#DejaVuSans-32"/>
     <use xlink:href="#DejaVuSans-31" x="63.623047"/>
    </g>
   </g>
   <g id="text_3">
    <!-- 31 -->
    <g transform="translate(138.553624 216.630038) scale(0.12 -0.12)">
     <defs>
      <path id="DejaVuSans-33" d="M 2597 2516 
Q 3050 2419 3304 2112 
Q 3559 1806 3559 1356 
Q 3559 666 3084 287 
Q 2609 -91 1734 -91 
Q 1441 -91 1130 -33 
Q 819 25 488 141 
L 488 750 
Q 750 597 1062 519 
Q 1375 441 1716 441 
Q 2309 441 2620 675 
Q 2931 909 2931 1356 
Q 2931 1769 2642 2001 
Q 2353 2234 1838 2234 
L 1294 2234 
L 1294 2753 
L 1863 2753 
Q 2328 2753 2575 2939 
Q 2822 3125 2822 3475 
Q 2822 3834 2567 4026 
Q 2313 4219 1838 4219 
Q 1578 4219 1281 4162 
Q 984 4106 628 3988 
L 628 4550 
Q 988 4650 1302 4700 
Q 1616 4750 1894 4750 
Q 2613 4750 3031 4423 
Q 3450 4097 3450 3541 
Q 3450 3153 3228 2886 
Q 3006 2619 2597 2516 
z
" transform="scale(0.015625)"/>
     </defs>
     <use xlink:href="#DejaVuSans-33"/>
     <use xlink:href="#DejaVuSans-31" x="63.623047"/>
    </g>
   </g>
   <g id="text_4">
    <!-- 12 -->
    <g transform="translate(198.835588 80.872462) scale(0.12 -0.12)">
     <use xlink:href="#DejaVuSans-31"/>
     <use xlink:href="#DejaVuSans-32" x="63.623047"/>
    </g>
   </g>
   <g id="text_5">
    <!-- 22 -->
    <g transform="translate(198.835588 148.75125) scale(0.12 -0.12)">
     <use xlink:href="#DejaVuSans-32"/>
     <use xlink:href="#DejaVuSans-32" x="63.623047"/>
    </g>
   </g>
   <g id="text_6">
    <!-- 32 -->
    <g transform="translate(198.835588 216.630038) scale(0.12 -0.12)">
     <use xlink:href="#DejaVuSans-33"/>
     <use xlink:href="#DejaVuSans-32" x="63.623047"/>
    </g>
   </g>
   <g id="text_7">
    <!-- 13 -->
    <g transform="translate(259.117552 80.872462) scale(0.12 -0.12)">
     <use xlink:href="#DejaVuSans-31"/>
     <use xlink:href="#DejaVuSans-33" x="63.623047"/>
    </g>
   </g>
   <g id="text_8">
    <!-- 23 -->
    <g transform="translate(259.117552 148.75125) scale(0.12 -0.12)">
     <use xlink:href="#DejaVuSans-32"/>
     <use xlink:href="#DejaVuSans-33" x="63.623047"/>
    </g>
   </g>
   <g id="text_9">
    <!-- 33 -->
    <g transform="translate(259.117552 216.630038) scale(0.12 -0.12)">
     <use xlink:href="#DejaVuSans-33"/>
     <use xlink:href="#DejaVuSans-33" x="63.623047"/>
    </g>
   </g>
   <g id="text_10">
    <!-- + -->
    <g transform="translate(305.760467 151.510625) scale(0.22 -0.22)">
     <defs>
      <path id="DejaVuSans-2b" d="M 2944 4013 
L 2944 2272 
L 4684 2272 
L 4684 1741 
L 2944 1741 
L 2944 0 
L 2419 0 
L 2419 1741 
L 678 1741 
L 678 2272 
L 2419 2272 
L 2419 4013 
L 2944 4013 
z
" transform="scale(0.015625)"/>
     </defs>
     <use xlink:href="#DejaVuSans-2b"/>
    </g>
   </g>
  </g>
  <g id="axes_2">
   <g id="patch_16">
    <path d="M 344.329412 256.32 
L 541.270588 256.32 
L 541.270588 34.56 
L 344.329412 34.56 
z
"/>
   </g>
   <g id="patch_17">
    <path d="M 353.281283 44.64 
L 411.754789 44.64 
L 411.754789 110.482424 
L 353.281283 110.482424 
z
" clip-path="url(#pefcc602171)" style="fill: #eeeeee; stroke: #eeeeee; stroke-linejoin: miter"/>
   </g>
   <g id="patch_18">
    <path d="M 353.281283 44.64 
L 411.754789 44.64 
L 411.754789 110.482424 
L 353.281283 110.482424 
z
" clip-path="url(#pefcc602171)" style="fill: #1199ff; stroke: #1199ff; stroke-linejoin: miter"/>
   </g>
   <g id="patch_19">
    <path d="M 413.563247 44.64 
L 472.036753 44.64 
L 472.036753 110.482424 
L 413.563247 110.482424 
z
" clip-path="url(#pefcc602171)" style="fill: #eeeeee; stroke: #eeeeee; stroke-linejoin: miter"/>
   </g>
   <g id="patch_20">
    <path d="M 473.845211 44.64 
L 532.318717 44.64 
L 532.318717 110.482424 
L 473.845211 110.482424 
z
" clip-path="url(#pefcc602171)" style="fill: #eeeeee; stroke: #eeeeee; stroke-linejoin: miter"/>
   </g>
   <g id="patch_21">
    <path d="M 353.281283 112.518788 
L 411.754789 112.518788 
L 411.754789 178.361212 
L 353.281283 178.361212 
z
" clip-path="url(#pefcc602171)" style="fill: #eeeeee; stroke: #eeeeee; stroke-linejoin: miter"/>
   </g>
   <g id="patch_22">
    <path d="M 353.281283 112.518788 
L 411.754789 112.518788 
L 411.754789 178.361212 
L 353.281283 178.361212 
z
" clip-path="url(#pefcc602171)" style="fill: #1199ff; stroke: #1199ff; stroke-linejoin: miter"/>
   </g>
   <g id="patch_23">
    <path d="M 413.563247 112.518788 
L 472.036753 112.518788 
L 472.036753 178.361212 
L 413.563247 178.361212 
z
" clip-path="url(#pefcc602171)" style="fill: #eeeeee; stroke: #eeeeee; stroke-linejoin: miter"/>
   </g>
   <g id="patch_24">
    <path d="M 473.845211 112.518788 
L 532.318717 112.518788 
L 532.318717 178.361212 
L 473.845211 178.361212 
z
" clip-path="url(#pefcc602171)" style="fill: #eeeeee; stroke: #eeeeee; stroke-linejoin: miter"/>
   </g>
   <g id="patch_25">
    <path d="M 353.281283 180.397576 
L 411.754789 180.397576 
L 411.754789 246.24 
L 353.281283 246.24 
z
" clip-path="url(#pefcc602171)" style="fill: #eeeeee; stroke: #eeeeee; stroke-linejoin: miter"/>
   </g>
   <g id="patch_26">
    <path d="M 353.281283 180.397576 
L 411.754789 180.397576 
L 411.754789 246.24 
L 353.281283 246.24 
z
" clip-path="url(#pefcc602171)" style="fill: #1199ff; stroke: #1199ff; stroke-linejoin: miter"/>
   </g>
   <g id="patch_27">
    <path d="M 413.563247 180.397576 
L 472.036753 180.397576 
L 472.036753 246.24 
L 413.563247 246.24 
z
" clip-path="url(#pefcc602171)" style="fill: #eeeeee; stroke: #eeeeee; stroke-linejoin: miter"/>
   </g>
   <g id="patch_28">
    <path d="M 473.845211 180.397576 
L 532.318717 180.397576 
L 532.318717 246.24 
L 473.845211 246.24 
z
" clip-path="url(#pefcc602171)" style="fill: #eeeeee; stroke: #eeeeee; stroke-linejoin: miter"/>
   </g>
   <g id="matplotlib.axis_3"/>
   <g id="matplotlib.axis_4"/>
   <g id="patch_29">
    <path d="M 344.329412 256.32 
L 344.329412 34.56 
" style="fill: none; stroke: #000000; stroke-width: 0.8; stroke-linejoin: miter; stroke-linecap: square"/>
   </g>
   <g id="patch_30">
    <path d="M 541.270588 256.32 
L 541.270588 34.56 
" style="fill: none; stroke: #000000; stroke-width: 0.8; stroke-linejoin: miter; stroke-linecap: square"/>
   </g>
   <g id="patch_31">
    <path d="M 344.329412 256.32 
L 541.270588 256.32 
" style="fill: none; stroke: #000000; stroke-width: 0.8; stroke-linejoin: miter; stroke-linecap: square"/>
   </g>
   <g id="patch_32">
    <path d="M 344.329412 34.56 
L 541.270588 34.56 
" style="fill: none; stroke: #000000; stroke-width: 0.8; stroke-linejoin: miter; stroke-linecap: square"/>
   </g>
   <g id="text_11">
    <!-- 1 -->
    <g transform="translate(378.700536 80.872462) scale(0.12 -0.12)">
     <use xlink:href="#DejaVuSans-31"/>
    </g>
   </g>
   <g id="text_12">
    <!-- 2 -->
    <g transform="translate(378.700536 148.75125) scale(0.12 -0.12)">
     <use xlink:href="#DejaVuSans-32"/>
    </g>
   </g>
   <g id="text_13">
    <!-- 3 -->
    <g transform="translate(378.700536 216.630038) scale(0.12 -0.12)">
     <use xlink:href="#DejaVuSans-33"/>
    </g>
   </g>
   <g id="text_14">
    <!-- 1 -->
    <g transform="translate(438.9825 80.872462) scale(0.12 -0.12)">
     <use xlink:href="#DejaVuSans-31"/>
    </g>
   </g>
   <g id="text_15">
    <!-- 2 -->
    <g transform="translate(438.9825 148.75125) scale(0.12 -0.12)">
     <use xlink:href="#DejaVuSans-32"/>
    </g>
   </g>
   <g id="text_16">
    <!-- 3 -->
    <g transform="translate(438.9825 216.630038) scale(0.12 -0.12)">
     <use xlink:href="#DejaVuSans-33"/>
    </g>
   </g>
   <g id="text_17">
    <!-- 1 -->
    <g transform="translate(499.264464 80.872462) scale(0.12 -0.12)">
     <use xlink:href="#DejaVuSans-31"/>
    </g>
   </g>
   <g id="text_18">
    <!-- 2 -->
    <g transform="translate(499.264464 148.75125) scale(0.12 -0.12)">
     <use xlink:href="#DejaVuSans-32"/>
    </g>
   </g>
   <g id="text_19">
    <!-- 3 -->
    <g transform="translate(499.264464 216.630038) scale(0.12 -0.12)">
     <use xlink:href="#DejaVuSans-33"/>
    </g>
   </g>
   <g id="text_20">
    <!-- = -->
    <g transform="translate(542.089879 151.510625) scale(0.22 -0.22)">
     <defs>
      <path id="DejaVuSans-3d" d="M 678 2906 
L 4684 2906 
L 4684 2381 
L 678 2381 
L 678 2906 
z
M 678 1631 
L 4684 1631 
L 4684 1100 
L 678 1100 
L 678 1631 
z
" transform="scale(0.015625)"/>
     </defs>
     <use xlink:href="#DejaVuSans-3d"/>
    </g>
   </g>
  </g>
  <g id="axes_3">
   <g id="patch_33">
    <path d="M 580.658824 256.32 
L 777.6 256.32 
L 777.6 34.56 
L 580.658824 34.56 
z
"/>
   </g>
   <g id="patch_34">
    <path d="M 589.610695 44.64 
L 648.0842 44.64 
L 648.0842 110.482424 
L 589.610695 110.482424 
z
" clip-path="url(#p3536d2da1f)" style="fill: #eeeeee; stroke: #eeeeee; stroke-linejoin: miter"/>
   </g>
   <g id="patch_35">
    <path d="M 589.610695 44.64 
L 648.0842 44.64 
L 648.0842 110.482424 
L 589.610695 110.482424 
z
" clip-path="url(#p3536d2da1f)" style="fill: #1199ff; stroke: #1199ff; stroke-linejoin: miter"/>
   </g>
   <g id="patch_36">
    <path d="M 649.892659 44.64 
L 708.366164 44.64 
L 708.366164 110.482424 
L 649.892659 110.482424 
z
" clip-path="url(#p3536d2da1f)" style="fill: #eeeeee; stroke: #eeeeee; stroke-linejoin: miter"/>
   </g>
   <g id="patch_37">
    <path d="M 649.892659 44.64 
L 708.366164 44.64 
L 708.366164 110.482424 
L 649.892659 110.482424 
z
" clip-path="url(#p3536d2da1f)" style="fill: #1199ff; stroke: #1199ff; stroke-linejoin: miter"/>
   </g>
   <g id="patch_38">
    <path d="M 710.174623 44.64 
L 768.648128 44.64 
L 768.648128 110.482424 
L 710.174623 110.482424 
z
" clip-path="url(#p3536d2da1f)" style="fill: #eeeeee; stroke: #eeeeee; stroke-linejoin: miter"/>
   </g>
   <g id="patch_39">
    <path d="M 710.174623 44.64 
L 768.648128 44.64 
L 768.648128 110.482424 
L 710.174623 110.482424 
z
" clip-path="url(#p3536d2da1f)" style="fill: #1199ff; stroke: #1199ff; stroke-linejoin: miter"/>
   </g>
   <g id="patch_40">
    <path d="M 589.610695 112.518788 
L 648.0842 112.518788 
L 648.0842 178.361212 
L 589.610695 178.361212 
z
" clip-path="url(#p3536d2da1f)" style="fill: #eeeeee; stroke: #eeeeee; stroke-linejoin: miter"/>
   </g>
   <g id="patch_41">
    <path d="M 589.610695 112.518788 
L 648.0842 112.518788 
L 648.0842 178.361212 
L 589.610695 178.361212 
z
" clip-path="url(#p3536d2da1f)" style="fill: #1199ff; stroke: #1199ff; stroke-linejoin: miter"/>
   </g>
   <g id="patch_42">
    <path d="M 649.892659 112.518788 
L 708.366164 112.518788 
L 708.366164 178.361212 
L 649.892659 178.361212 
z
" clip-path="url(#p3536d2da1f)" style="fill: #eeeeee; stroke: #eeeeee; stroke-linejoin: miter"/>
   </g>
   <g id="patch_43">
    <path d="M 649.892659 112.518788 
L 708.366164 112.518788 
L 708.366164 178.361212 
L 649.892659 178.361212 
z
" clip-path="url(#p3536d2da1f)" style="fill: #1199ff; stroke: #1199ff; stroke-linejoin: miter"/>
   </g>
   <g id="patch_44">
    <path d="M 710.174623 112.518788 
L 768.648128 112.518788 
L 768.648128 178.361212 
L 710.174623 178.361212 
z
" clip-path="url(#p3536d2da1f)" style="fill: #eeeeee; stroke: #eeeeee; stroke-linejoin: miter"/>
   </g>
   <g id="patch_45">
    <path d="M 710.174623 112.518788 
L 768.648128 112.518788 
L 768.648128 178.361212 
L 710.174623 178.361212 
z
" clip-path="url(#p3536d2da1f)" style="fill: #1199ff; stroke: #1199ff; stroke-linejoin: miter"/>
   </g>
   <g id="patch_46">
    <path d="M 589.610695 180.397576 
L 648.0842 180.397576 
L 648.0842 246.24 
L 589.610695 246.24 
z
" clip-path="url(#p3536d2da1f)" style="fill: #eeeeee; stroke: #eeeeee; stroke-linejoin: miter"/>
   </g>
   <g id="patch_47">
    <path d="M 589.610695 180.397576 
L 648.0842 180.397576 
L 648.0842 246.24 
L 589.610695 246.24 
z
" clip-path="url(#p3536d2da1f)" style="fill: #1199ff; stroke: #1199ff; stroke-linejoin: miter"/>
   </g>
   <g id="patch_48">
    <path d="M 649.892659 180.397576 
L 708.366164 180.397576 
L 708.366164 246.24 
L 649.892659 246.24 
z
" clip-path="url(#p3536d2da1f)" style="fill: #eeeeee; stroke: #eeeeee; stroke-linejoin: miter"/>
   </g>
   <g id="patch_49">
    <path d="M 649.892659 180.397576 
L 708.366164 180.397576 
L 708.366164 246.24 
L 649.892659 246.24 
z
" clip-path="url(#p3536d2da1f)" style="fill: #1199ff; stroke: #1199ff; stroke-linejoin: miter"/>
   </g>
   <g id="patch_50">
    <path d="M 710.174623 180.397576 
L 768.648128 180.397576 
L 768.648128 246.24 
L 710.174623 246.24 
z
" clip-path="url(#p3536d2da1f)" style="fill: #eeeeee; stroke: #eeeeee; stroke-linejoin: miter"/>
   </g>
   <g id="patch_51">
    <path d="M 710.174623 180.397576 
L 768.648128 180.397576 
L 768.648128 246.24 
L 710.174623 246.24 
z
" clip-path="url(#p3536d2da1f)" style="fill: #1199ff; stroke: #1199ff; stroke-linejoin: miter"/>
   </g>
   <g id="matplotlib.axis_5"/>
   <g id="matplotlib.axis_6"/>
   <g id="patch_52">
    <path d="M 580.658824 256.32 
L 580.658824 34.56 
" style="fill: none; stroke: #000000; stroke-width: 0.8; stroke-linejoin: miter; stroke-linecap: square"/>
   </g>
   <g id="patch_53">
    <path d="M 777.6 256.32 
L 777.6 34.56 
" style="fill: none; stroke: #000000; stroke-width: 0.8; stroke-linejoin: miter; stroke-linecap: square"/>
   </g>
   <g id="patch_54">
    <path d="M 580.658824 256.32 
L 777.6 256.32 
" style="fill: none; stroke: #000000; stroke-width: 0.8; stroke-linejoin: miter; stroke-linecap: square"/>
   </g>
   <g id="patch_55">
    <path d="M 580.658824 34.56 
L 777.6 34.56 
" style="fill: none; stroke: #000000; stroke-width: 0.8; stroke-linejoin: miter; stroke-linecap: square"/>
   </g>
   <g id="text_21">
    <!-- 12 -->
    <g transform="translate(611.212448 80.872462) scale(0.12 -0.12)">
     <use xlink:href="#DejaVuSans-31"/>
     <use xlink:href="#DejaVuSans-32" x="63.623047"/>
    </g>
   </g>
   <g id="text_22">
    <!-- 23 -->
    <g transform="translate(611.212448 148.75125) scale(0.12 -0.12)">
     <use xlink:href="#DejaVuSans-32"/>
     <use xlink:href="#DejaVuSans-33" x="63.623047"/>
    </g>
   </g>
   <g id="text_23">
    <!-- 34 -->
    <g transform="translate(611.212448 216.630038) scale(0.12 -0.12)">
     <defs>
      <path id="DejaVuSans-34" d="M 2419 4116 
L 825 1625 
L 2419 1625 
L 2419 4116 
z
M 2253 4666 
L 3047 4666 
L 3047 1625 
L 3713 1625 
L 3713 1100 
L 3047 1100 
L 3047 0 
L 2419 0 
L 2419 1100 
L 313 1100 
L 313 1709 
L 2253 4666 
z
" transform="scale(0.015625)"/>
     </defs>
     <use xlink:href="#DejaVuSans-33"/>
     <use xlink:href="#DejaVuSans-34" x="63.623047"/>
    </g>
   </g>
   <g id="text_24">
    <!-- 13 -->
    <g transform="translate(671.494412 80.872462) scale(0.12 -0.12)">
     <use xlink:href="#DejaVuSans-31"/>
     <use xlink:href="#DejaVuSans-33" x="63.623047"/>
    </g>
   </g>
   <g id="text_25">
    <!-- 24 -->
    <g transform="translate(671.494412 148.75125) scale(0.12 -0.12)">
     <use xlink:href="#DejaVuSans-32"/>
     <use xlink:href="#DejaVuSans-34" x="63.623047"/>
    </g>
   </g>
   <g id="text_26">
    <!-- 35 -->
    <g transform="translate(671.494412 216.630038) scale(0.12 -0.12)">
     <defs>
      <path id="DejaVuSans-35" d="M 691 4666 
L 3169 4666 
L 3169 4134 
L 1269 4134 
L 1269 2991 
Q 1406 3038 1543 3061 
Q 1681 3084 1819 3084 
Q 2600 3084 3056 2656 
Q 3513 2228 3513 1497 
Q 3513 744 3044 326 
Q 2575 -91 1722 -91 
Q 1428 -91 1123 -41 
Q 819 9 494 109 
L 494 744 
Q 775 591 1075 516 
Q 1375 441 1709 441 
Q 2250 441 2565 725 
Q 2881 1009 2881 1497 
Q 2881 1984 2565 2268 
Q 2250 2553 1709 2553 
Q 1456 2553 1204 2497 
Q 953 2441 691 2322 
L 691 4666 
z
" transform="scale(0.015625)"/>
     </defs>
     <use xlink:href="#DejaVuSans-33"/>
     <use xlink:href="#DejaVuSans-35" x="63.623047"/>
    </g>
   </g>
   <g id="text_27">
    <!-- 14 -->
    <g transform="translate(731.776376 80.872462) scale(0.12 -0.12)">
     <use xlink:href="#DejaVuSans-31"/>
     <use xlink:href="#DejaVuSans-34" x="63.623047"/>
    </g>
   </g>
   <g id="text_28">
    <!-- 25 -->
    <g transform="translate(731.776376 148.75125) scale(0.12 -0.12)">
     <use xlink:href="#DejaVuSans-32"/>
     <use xlink:href="#DejaVuSans-35" x="63.623047"/>
    </g>
   </g>
   <g id="text_29">
    <!-- 36 -->
    <g transform="translate(731.776376 216.630038) scale(0.12 -0.12)">
     <defs>
      <path id="DejaVuSans-36" d="M 2113 2584 
Q 1688 2584 1439 2293 
Q 1191 2003 1191 1497 
Q 1191 994 1439 701 
Q 1688 409 2113 409 
Q 2538 409 2786 701 
Q 3034 994 3034 1497 
Q 3034 2003 2786 2293 
Q 2538 2584 2113 2584 
z
M 3366 4563 
L 3366 3988 
Q 3128 4100 2886 4159 
Q 2644 4219 2406 4219 
Q 1781 4219 1451 3797 
Q 1122 3375 1075 2522 
Q 1259 2794 1537 2939 
Q 1816 3084 2150 3084 
Q 2853 3084 3261 2657 
Q 3669 2231 3669 1497 
Q 3669 778 3244 343 
Q 2819 -91 2113 -91 
Q 1303 -91 875 529 
Q 447 1150 447 2328 
Q 447 3434 972 4092 
Q 1497 4750 2381 4750 
Q 2619 4750 2861 4703 
Q 3103 4656 3366 4563 
z
" transform="scale(0.015625)"/>
     </defs>
     <use xlink:href="#DejaVuSans-33"/>
     <use xlink:href="#DejaVuSans-36" x="63.623047"/>
    </g>
   </g>
  </g>
 </g>
 <defs>
  <clipPath id="pffaecad0fb">
   <rect x="108" y="34.56" width="196.941176" height="221.76"/>
  </clipPath>
  <clipPath id="pefcc602171">
   <rect x="344.329412" y="34.56" width="196.941176" height="221.76"/>
  </clipPath>
  <clipPath id="p3536d2da1f">
   <rect x="580.658824" y="34.56" width="196.941176" height="221.76"/>
  </clipPath>
 </defs>
</svg>
